<?xml version="1.0" standalone="no"?>
<!DOCTYPE svg PUBLIC "-//W3C//DTD SVG 20010904//EN"
 "http://www.w3.org/TR/2001/REC-SVG-20010904/DTD/svg10.dtd">
<svg version="1.0" xmlns="http://www.w3.org/2000/svg"
 width="500.000000pt" height="500.000000pt" viewBox="0 0 500.000000 500.000000"
 preserveAspectRatio="xMidYMid meet">
<metadata>
Created by potrace 1.14, written by Peter Selinger 2001-2017
</metadata>
<g transform="translate(0.000000,500.000000) scale(0.100000,-0.100000)"
fill="#000000" stroke="none">
<path d="M1992 3428 c-16 -16 -15 -45 1 -55 6 -4 52 -15 101 -23 l88 -15 139
-354 138 -355 -22 -15 c-12 -8 -41 -33 -65 -56 -34 -33 -43 -49 -48 -87 -6
-44 -4 -50 27 -81 l34 -34 -22 -17 c-49 -37 -15 -126 47 -126 56 0 91 80 53
122 -16 17 -7 18 244 18 143 0 281 -3 305 -6 45 -6 45 -7 33 -31 -37 -72 58
-138 113 -80 24 25 30 81 10 93 -7 5 4 12 28 19 41 11 55 35 34 60 -11 13 -75
15 -416 15 -272 0 -405 3 -409 11 -15 23 8 56 73 106 37 29 81 55 97 58 17 3
162 16 324 29 175 14 298 29 305 36 6 6 23 104 37 218 21 166 23 211 14 227
-12 19 -31 21 -463 34 l-450 15 -49 123 c-28 73 -55 125 -64 128 -25 8 -182
35 -204 35 -12 0 -26 -5 -33 -12z m488 -398 c0 -60 0 -60 -29 -60 -34 0 -33
-1 -60 68 l-21 52 55 0 55 0 0 -60z m106 50 l44 0 0 -55 0 -55 -60 0 -60 0 0
61 c0 52 2 60 16 55 9 -3 36 -6 60 -6z m194 -55 l0 -55 -60 0 -60 0 0 55 0 55
60 0 60 0 0 -55z m150 0 l0 -55 -60 0 -60 0 0 55 0 55 60 0 60 0 0 -55z m133
45 c14 0 17 -9 17 -55 0 -61 -2 -62 -82 -49 -38 7 -38 7 -38 55 0 41 3 48 23
52 12 3 31 3 42 1 11 -2 28 -4 38 -4z m140 -42 c-7 -66 -9 -68 -53 -68 l-40 0
0 55 0 55 49 0 49 0 -5 -42z m-723 -155 l-1 -58 -19 50 c-25 62 -25 65 0 65
18 0 20 -7 20 -57z m150 2 l0 -55 -60 0 -60 0 0 55 0 55 60 0 60 0 0 -55z
m150 0 l0 -55 -60 0 -60 0 0 55 0 55 60 0 60 0 0 -55z m150 0 l0 -55 -60 0
-60 0 0 55 0 55 60 0 60 0 0 -55z m150 0 l0 -55 -60 0 -60 0 0 55 0 55 60 0
60 0 0 -55z m106 18 c-3 -21 -6 -46 -6 -55 0 -14 -8 -18 -35 -18 l-35 0 0 55
0 55 41 0 42 0 -7 -37z m-556 -157 l0 -54 -46 -7 c-25 -3 -47 -5 -48 -3 -13
20 -26 65 -26 88 0 30 0 30 60 30 l60 0 0 -54z m148 3 l-3 -51 -57 -4 -58 -4
0 55 0 55 61 0 60 0 -3 -51z m152 7 c0 -49 -10 -56 -82 -56 l-38 0 0 50 0 50
60 0 60 0 0 -44z m150 4 c0 -27 -4 -40 -14 -40 -7 0 -34 -3 -60 -6 l-46 -7 0
47 0 46 60 0 60 0 0 -40z m90 6 c0 -33 -13 -46 -46 -46 -10 0 -14 12 -14 40 0
38 2 40 30 40 27 0 30 -3 30 -34z m-736 -439 c22 -16 18 -55 -6 -71 -40 -24
-80 44 -42 71 10 7 21 13 24 13 3 0 14 -6 24 -13z m700 0 c38 -27 -2 -95 -41
-71 -25 16 -29 55 -7 71 10 7 21 13 24 13 3 0 14 -6 24 -13z"/>
<path d="M2390 2279 c0 -25 33 -22 38 4 2 12 -3 17 -17 17 -15 0 -21 -6 -21
-21z"/>
<path d="M3096 2303 c-3 -4 -6 -15 -6 -25 0 -24 33 -21 38 3 3 17 -21 33 -32
22z"/>
<path d="M545 2036 c-123 -55 -152 -229 -55 -326 64 -64 160 -75 233 -26 43
29 78 100 75 151 l-3 40 -87 3 -88 3 0 -36 c0 -35 0 -35 45 -35 51 0 55 -8 21
-46 -56 -66 -156 -13 -156 82 0 105 82 160 155 103 l27 -22 25 26 c33 32 25
52 -29 77 -50 23 -120 25 -163 6z"/>
<path d="M1265 2033 c-81 -42 -122 -117 -112 -204 15 -124 122 -198 243 -168
134 34 188 211 97 319 -54 65 -159 89 -228 53z m124 -77 c34 -18 51 -54 51
-112 0 -60 -40 -104 -95 -104 -56 0 -95 44 -95 107 1 55 17 90 51 109 31 17
54 17 88 0z"/>
<path d="M1685 2031 c-116 -52 -157 -186 -88 -285 56 -80 172 -114 261 -77 36
15 38 21 17 60 -13 27 -16 28 -52 18 -114 -30 -199 63 -148 162 8 16 22 32 32
36 53 21 77 24 113 11 38 -13 38 -13 54 21 21 44 22 42 -19 59 -47 19 -122 17
-170 -5z"/>
<path d="M3076 2031 c-37 -25 -55 -57 -56 -98 0 -41 30 -75 100 -112 42 -22
55 -34 55 -51 0 -38 -45 -47 -101 -19 -49 23 -48 23 -75 -24 -15 -27 4 -44 68
-63 58 -17 106 -13 155 12 35 18 49 45 50 95 1 50 -25 80 -105 120 -48 25 -58
34 -55 52 3 19 9 22 43 21 22 0 48 -4 57 -8 12 -6 21 0 32 23 21 40 21 40 -19
57 -49 20 -114 18 -149 -5z"/>
<path d="M3695 2036 c-34 -15 -92 -76 -106 -113 -26 -70 2 -177 60 -226 30
-25 87 -47 121 -47 63 0 146 53 177 114 34 66 12 188 -44 238 -49 45 -147 61
-208 34z m141 -100 c28 -28 34 -42 34 -75 0 -48 -21 -96 -49 -111 -34 -18 -86
-12 -113 13 -72 67 -24 206 71 207 13 0 37 -14 57 -34z"/>
<path d="M830 1850 l0 -190 45 0 45 0 0 76 0 77 58 -76 57 -76 58 -1 58 0 -65
77 -65 78 29 23 c56 44 58 139 3 182 -22 17 -40 20 -124 20 l-99 0 0 -190z
m162 106 c10 -14 10 -64 1 -69 -5 -3 -23 -8 -40 -12 l-33 -7 0 50 c0 27 2 51
5 54 9 8 59 -4 67 -16z"/>
<path d="M1930 1850 l0 -190 110 0 110 0 0 40 0 40 -65 0 -65 0 0 35 0 35 60
0 60 0 0 40 0 40 -60 0 -60 0 0 40 0 40 65 0 65 0 0 35 0 35 -110 0 -110 0 0
-190z"/>
<path d="M2200 1850 l0 -190 45 0 44 0 3 71 3 71 54 -71 54 -71 54 0 c63 0 65
-8 -21 94 l-50 59 26 21 c49 40 62 100 34 155 -21 40 -56 51 -156 51 l-90 0 0
-190z m158 107 c16 -12 16 -52 -1 -65 -6 -6 -24 -13 -40 -17 -27 -7 -27 -7
-27 48 0 54 0 54 28 49 15 -2 33 -9 40 -15z"/>
<path d="M2500 2035 c0 -3 29 -49 65 -103 l65 -97 0 -87 0 -88 45 0 45 0 0 85
0 86 70 104 70 105 -54 0 -55 0 -33 -55 c-18 -30 -36 -55 -40 -55 -4 0 -23 25
-43 55 -35 55 -35 55 -85 55 -27 0 -50 -2 -50 -5z"/>
<path d="M3290 2006 c0 -34 1 -35 48 -38 l47 -3 3 -152 3 -153 39 0 40 0 0
155 0 155 45 0 c45 0 45 0 45 35 l0 35 -135 0 -135 0 0 -34z"/>
<path d="M4010 1850 l0 -190 40 0 39 0 3 75 3 76 58 -76 58 -75 55 0 56 0 -65
78 -65 77 37 31 c33 29 36 36 36 83 0 47 -4 56 -33 82 -31 28 -36 29 -127 29
l-95 0 0 -190z m161 98 c14 -27 2 -57 -29 -69 -40 -15 -52 -5 -52 44 0 24 2
46 5 49 11 11 66 -6 76 -24z"/>
<path d="M4340 1850 l0 -190 110 0 110 0 0 40 0 40 -65 0 -65 0 0 35 0 35 60
0 60 0 0 40 0 40 -60 0 -60 0 0 40 0 40 65 0 65 0 0 35 0 35 -110 0 -110 0 0
-190z"/>
<path d="M1771 1507 c8 -7 28 -45 43 -84 15 -40 34 -73 41 -73 7 0 25 34 40
75 15 41 32 75 36 75 5 0 9 5 9 10 0 6 -14 10 -31 10 -26 0 -29 -3 -20 -14 9
-10 6 -27 -11 -72 l-22 -58 -20 45 c-10 24 -19 56 -19 72 0 24 -4 27 -31 27
-26 -1 -29 -2 -15 -13z"/>
<path d="M2525 1435 c0 -84 0 -85 25 -85 19 0 21 3 12 12 -7 7 -12 42 -12 85
0 52 -4 73 -12 73 -10 0 -13 -24 -13 -85z"/>
<path d="M2678 1495 c-14 -32 -1 -48 57 -68 52 -18 56 -50 8 -55 -24 -2 -35 2
-45 17 -18 29 -28 26 -28 -9 0 -16 5 -30 10 -30 6 0 10 5 10 12 0 9 3 9 12 0
17 -17 73 -15 88 2 23 29 8 59 -40 77 -31 12 -46 23 -48 38 -5 31 50 30 71 -1
l16 -23 0 30 c1 29 -1 30 -49 33 -45 3 -51 1 -62 -23z"/>
<path d="M2828 1513 c16 -6 16 -135 0 -151 -9 -9 -6 -12 13 -12 24 0 25 3 25
47 -1 39 2 48 18 51 24 5 36 -14 36 -60 0 -26 5 -38 14 -38 11 0 13 10 9 43
-9 64 -20 80 -54 75 -26 -4 -29 -2 -29 24 0 23 -4 28 -22 27 -13 0 -17 -3 -10
-6z"/>
<path d="M1980 1495 c0 -8 5 -15 10 -15 6 0 10 7 10 15 0 8 -4 15 -10 15 -5 0
-10 -7 -10 -15z"/>
<path d="M2153 1485 c-11 -20 -4 -99 11 -123 8 -14 46 -16 46 -3 0 5 -9 11
-20 14 -15 4 -20 14 -20 41 0 29 4 36 20 36 11 0 20 5 20 10 0 6 -9 10 -19 10
-11 0 -21 8 -23 18 -4 15 -5 15 -15 -3z"/>
<path d="M1978 1425 c3 -28 0 -50 -8 -60 -11 -13 -8 -15 21 -15 26 0 30 3 21
12 -7 7 -12 34 -12 60 0 34 -4 48 -14 48 -10 0 -12 -11 -8 -45z"/>
<path d="M2048 1425 c3 -28 0 -50 -8 -60 -11 -13 -8 -15 20 -15 27 0 30 2 21
14 -19 23 -9 70 17 81 12 5 22 13 22 17 0 11 -8 10 -31 -2 -13 -7 -19 -7 -19
0 0 5 -6 10 -14 10 -10 0 -12 -11 -8 -45z"/>
<path d="M2230 1460 c0 -5 4 -10 9 -10 6 0 11 -21 13 -47 l3 -48 53 -1 c28 -1
52 2 52 7 0 5 -4 9 -10 9 -5 0 -10 23 -10 50 0 35 -4 50 -14 50 -10 0 -12 -12
-8 -50 4 -48 4 -50 -21 -50 -28 0 -37 16 -37 66 0 24 -5 34 -15 34 -8 0 -15
-4 -15 -10z"/>
<path d="M2403 1463 c-23 -9 -14 -18 19 -18 17 0 33 -6 35 -12 3 -8 -4 -13
-19 -13 -58 0 -81 -62 -25 -68 16 -2 35 2 43 9 10 8 14 8 14 0 0 -6 7 -11 15
-11 8 0 15 5 15 10 0 6 -4 10 -10 10 -5 0 -10 17 -10 38 0 54 -29 75 -77 55z
m55 -70 c-4 -23 -58 -31 -58 -9 0 13 11 18 53 25 5 0 7 -7 5 -16z"/>
<path d="M2990 1450 c-24 -24 -25 -48 -4 -78 19 -27 64 -29 87 -4 53 58 -28
137 -83 82z m70 -14 c6 -8 10 -25 8 -38 -6 -42 -78 -32 -78 11 0 37 46 55 70
27z"/>
<path d="M3110 1460 c0 -5 5 -10 10 -10 14 0 13 -123 -2 -138 -9 -9 -6 -12 17
-12 23 0 26 3 17 12 -7 7 -12 19 -12 29 0 12 9 16 37 15 30 -1 39 4 52 27 14
24 14 30 1 55 -17 30 -53 40 -76 22 -10 -9 -14 -9 -14 -1 0 6 -7 11 -15 11 -8
0 -15 -4 -15 -10z m100 -25 c7 -8 10 -25 6 -40 -8 -31 -50 -35 -66 -5 -23 42
30 81 60 45z"/>
</g>
</svg>
